<?xml version="1.0" standalone="no"?>
<!DOCTYPE svg PUBLIC "-//W3C//DTD SVG 20010904//EN"
 "http://www.w3.org/TR/2001/REC-SVG-20010904/DTD/svg10.dtd">
<svg version="1.0" xmlns="http://www.w3.org/2000/svg"
 width="512.000000pt" height="512.000000pt" viewBox="0 0 512.000000 512.000000"
 preserveAspectRatio="xMidYMid meet">

<g transform="translate(0.000000,512.000000) scale(0.100000,-0.100000)"
fill="#000000" stroke="none">
<path d="M754 4533 c3 -27 74 -815 156 -1753 82 -938 152 -1730 156 -1761 l6
-57 745 -213 746 -213 741 213 c408 117 742 214 744 215 1 2 72 792 157 1757
85 965 157 1778 160 1807 l6 52 -1811 0 -1812 0 6 -47z m3260 -315 c-4 -35
-112 -1280 -237 -2726 -13 -150 -28 -277 -33 -281 -7 -7 -1162 -341 -1179
-341 -2 0 -6 113 -7 252 l-3 252 -421 139 -420 138 -18 252 c-9 139 -20 271
-23 295 l-5 42 220 0 220 0 7 -123 c4 -68 10 -128 13 -134 6 -8 411 -153 428
-153 2 0 4 140 4 310 l0 310 -450 0 c-353 0 -450 3 -450 13 0 6 -16 278 -35
602 -19 325 -35 609 -35 633 l0 42 485 0 485 0 0 260 0 260 730 0 730 0 -6
-42z"/>
<path d="M2045 3243 c8 -82 25 -311 25 -339 l0 -24 245 0 245 0 0 210 0 210
-260 0 -261 0 6 -57z"/>
</g>
</svg>
